<svg xmlns="http://www.w3.org/2000/svg" xmlns:xlink="http://www.w3.org/1999/xlink" width="32" height="32" class="icon" p-id="2426" t="1571303536356" version="1.1" viewBox="0 0 1024 1024"><defs><style type="text/css"/></defs><path fill="#3A8BF4" d="M512 512m-512 0a512 512 0 1 0 1024 0 512 512 0 1 0-1024 0Z" p-id="2427"/><path fill="#FFF" d="M442.944 524.821333v278.4a7.232 7.232 0 0 0 7.232 7.232h103.402667a7.232 7.232 0 0 0 7.232-7.232V520.298667h74.944a7.232 7.232 0 0 0 7.232-6.634667l7.210666-85.333333a7.232 7.232 0 0 0-7.210666-7.872h-82.154667v-60.373334a25.6 25.6 0 0 1 25.6-25.6h57.749333a7.232 7.232 0 0 0 7.232-7.232v-85.333333a7.232 7.232 0 0 0-7.232-7.232h-97.514666a103.722667 103.722667 0 0 0-103.722667 103.722667v82.048h-51.669333a7.274667 7.274667 0 0 0-7.274667 7.232v85.333333a7.253333 7.253333 0 0 0 7.274667 7.232h51.690666z" p-id="2428"/></svg>