<svg xmlns="http://www.w3.org/2000/svg" xmlns:xlink="http://www.w3.org/1999/xlink" id="图层_1" x="0" y="0" version="1.1" viewBox="0 0 42 42" style="enable-background:new 0 0 42 42" xml:space="preserve"><style type="text/css">.st0{fill:url(#SVGID_1_)}.st1{fill:#fff}</style><linearGradient id="SVGID_1_" x1="10.498" x2="31.502" y1="2.81" y2="39.19" gradientUnits="userSpaceOnUse"><stop offset="0" style="stop-color:#4cace2"/><stop offset="1" style="stop-color:#4e83c4"/></linearGradient><circle cx="21" cy="21" r="21" class="st0"/><path d="M15.7,31.7c-1.3,0-2.7-0.5-3.8-1.6c-2.2-2.2-2.2-5.5,0-7.7l2.8-2.8l1.9,1.9l-2.8,2.8c-1.1,1.1-1.1,2.7,0,3.8	c1.1,1.1,2.7,1.1,3.8,0l3.8-3.8c0.5-0.5,0.8-1.2,0.8-1.9c0-0.7-0.3-1.3-0.7-1.9l-1.5-1.3l1.9-1.9l1.5,1.5c0.9,0.9,1.5,2.3,1.5,3.8	s-0.5,2.8-1.6,3.8L19.5,30C18.6,31.1,17.1,31.7,15.7,31.7z M20.1,24.8l-1.5-1.3c-2.2-2.2-2.2-5.5,0-7.7l3.8-3.8	c2.2-2.2,5.5-2.2,7.7,0c2.2,2.2,2.2,5.5,0,7.7l-2.8,2.8l-1.9-1.9l2.8-2.8c1.1-1.1,1.1-2.7,0-3.8c-1.1-1.1-2.8-1.1-3.8,0l-3.9,3.6	c-1.1,1.1-1.1,2.7,0,3.8l1.5,1.5C21.9,22.9,20.1,24.8,20.1,24.8z" class="st1"/></svg>